# xmcd
#
# Track frame offsets:
#	150
#	21387
#	38662
#	51605
#	71280
#	87972
#	102615
#	124927
#	140562
#	160800
#
# Disc length: 2449 seconds
# Revision: 0
# Processed by: cddbd v1.5.2PL0 Copyright (c) Steve Scherf et al.
# Submitted via: dBpowerAMP V12.0
#
DISCID=8e098f0a
DTITLE=The Vaughan Brothers - Family Style
DYEAR=1990
DGENRE=Blues
TTITLE0=Hard To Be
TTITLE1=White Boots
TTITLE2=D/FW
TTITLE3=Good Texan
TTITLE4=Hillbillies From Outerspace
TTITLE5=Long Way From Home
TTITLE6=Tick Tock
TTITLE7=Telephone Song
TTITLE8=Baboom/Mama Said
TTITLE9=Brothers
EXTD=
EXTT0=
EXTT1=
EXTT2=
EXTT3=
EXTT4=
EXTT5=
EXTT6=
EXTT7=
EXTT8=
EXTT9=
PLAYORDER=
